# Blender v2.93.3 OBJ File: ''
# www.blender.org
mtllib Cub3.mtl
o Cube_Cube.001
v -0.462771 -0.286107 0.462771
v -0.462771 4.874804 0.462771
v -0.462771 -0.286107 -0.462771
v -0.462771 4.874804 -0.462771
v 0.462771 -0.286107 0.462771
v 0.462771 4.874804 0.462771
v 0.462771 -0.286107 -0.462771
v 0.462771 4.874804 -0.462771
v -0.462771 2.294348 0.462771
v -0.462771 2.294348 -0.462771
v 0.462771 2.294348 -0.462771
v 0.462771 2.294348 0.462771
v -0.462771 3.584906 0.462771
v -0.462771 3.584906 -0.462771
v 0.462771 3.584906 -0.462771
v 0.462771 3.584906 0.462771
v -0.462771 1.004121 -0.462771
v 0.462771 1.004121 -0.462771
v 0.462771 1.004121 0.462771
v -0.462771 1.004121 0.462771
v -0.462771 0.331614 -0.462771
v 0.462771 0.331614 -0.462771
v 0.462771 0.331614 0.462771
v -0.462771 0.331614 0.462771
v -0.462771 1.649235 0.462771
v -0.462771 1.649235 -0.462771
v 0.462771 1.649235 -0.462771
v 0.462771 1.649235 0.462771
v -0.462771 2.939627 -0.462771
v 0.462771 2.939627 -0.462771
v 0.462771 2.939627 0.462771
v -0.462771 2.939627 0.462771
v -0.462771 4.229855 0.462771
v -0.462771 4.229855 -0.462771
v 0.462771 4.229855 -0.462771
v 0.462771 4.229855 0.462771
v -0.462771 -0.286107 0.000000
v -0.462771 4.874804 0.000000
v 0.462771 -0.286107 0.000000
v 0.462771 4.874804 0.000000
v 0.462771 2.294348 0.000000
v -0.462771 2.294348 0.000000
v 0.462771 3.584906 0.000000
v -0.462771 3.584906 0.000000
v -0.462771 1.004121 0.000000
v 0.462771 1.004121 0.000000
v 0.462771 0.331614 0.000000
v -0.462771 0.331614 0.000000
v -0.462771 1.649235 0.000000
v 0.462771 1.649235 0.000000
v -0.462771 2.939627 0.000000
v 0.462771 2.939627 0.000000
v 0.462771 4.229855 0.000000
v -0.462771 4.229855 0.000000
v 0.000000 -0.286107 -0.462771
v 0.000000 4.874804 -0.462771
v 0.000000 -0.286107 0.462771
v 0.000000 4.874804 0.462771
v 0.000000 2.294348 0.462771
v 0.000000 2.294348 -0.462771
v 0.000000 3.584906 0.462771
v 0.000000 3.584906 -0.462771
v 0.000000 1.004121 -0.462771
v 0.000000 1.004121 0.462771
v 0.000000 0.331614 0.462771
v 0.000000 0.331614 -0.462771
v 0.000000 1.649235 -0.462771
v 0.000000 1.649235 0.462771
v 0.000000 2.939627 -0.462771
v 0.000000 2.939627 0.462771
v 0.000000 4.229855 0.462771
v 0.000000 4.229855 -0.462771
v 0.000000 4.874804 0.000000
v 0.000000 -0.286107 0.000000
v -0.462771 3.262267 0.462771
v -0.462771 3.262267 -0.462771
v 0.462771 3.262267 -0.462771
v 0.462771 3.262267 0.462771
v -0.462771 3.262267 0.000000
v 0.462771 3.262267 0.000000
v 0.000000 3.262267 -0.462771
v 0.000000 3.262267 0.462771
v -0.462771 3.907381 -0.462771
v 0.462771 3.907381 -0.462771
v 0.462771 3.907381 0.462771
v -0.462771 3.907381 0.462771
v -0.462771 3.907381 0.000000
v 0.462771 3.907381 0.000000
v 0.000000 3.907381 -0.462771
v 0.000000 3.907381 0.462771
v -0.462771 4.552330 0.462771
v -0.462771 4.552330 -0.462771
v 0.462771 4.552330 -0.462771
v 0.462771 4.552330 0.462771
v 0.462771 4.552330 0.000000
v -0.462771 4.552330 0.000000
v 0.000000 4.552330 0.462771
v 0.000000 4.552330 -0.462771
v -0.462771 1.971792 0.462771
v -0.462771 1.971792 -0.462771
v 0.462771 1.971792 -0.462771
v 0.462771 1.971792 0.462771
v -0.462771 1.971792 0.000000
v 0.462771 1.971792 0.000000
v 0.000000 1.971792 -0.462771
v 0.000000 1.971792 0.462771
v -0.462771 2.616988 -0.462771
v 0.462771 2.616988 -0.462771
v 0.462771 2.616988 0.462771
v -0.462771 2.616988 0.462771
v 0.462771 2.616988 0.000000
v -0.462771 2.616988 0.000000
v 0.000000 2.616988 0.462771
v 0.000000 2.616988 -0.462771
v -0.462771 1.326678 -0.462771
v 0.462771 1.326678 -0.462771
v 0.462771 1.326678 0.462771
v -0.462771 1.326678 0.462771
v 0.462771 1.326678 0.000000
v -0.462771 1.326678 0.000000
v 0.000000 1.326678 0.462771
v 0.000000 1.326678 -0.462771
v -0.462771 0.667868 0.462771
v -0.462771 0.667868 -0.462771
v 0.462771 0.667868 -0.462771
v 0.462771 0.667868 0.462771
v 0.462771 0.667868 0.000000
v -0.462771 0.667868 0.000000
v 0.000000 0.667868 0.462771
v 0.000000 0.667868 -0.462771
v -0.462771 0.022754 -0.462771
v 0.462771 0.022754 -0.462771
v 0.462771 0.022754 0.462771
v -0.462771 0.022754 0.462771
v -0.462771 0.022754 0.000000
v 0.462771 0.022754 0.000000
v 0.000000 0.022754 -0.462771
v 0.000000 0.022754 0.462771
vt 0.609379 0.125000
vt 0.625000 0.125000
vt 0.625000 0.250000
vt 0.609379 0.250000
vt 0.609379 0.375000
vt 0.625000 0.375000
vt 0.625000 0.500000
vt 0.609379 0.500000
vt 0.609379 0.625000
vt 0.625000 0.625000
vt 0.625000 0.750000
vt 0.609379 0.750000
vt 0.609379 0.875000
vt 0.625000 0.875000
vt 0.625000 1.000000
vt 0.609379 1.000000
vt 0.250000 0.625000
vt 0.375000 0.625000
vt 0.375000 0.750000
vt 0.250000 0.750000
vt 0.750000 0.625000
vt 0.875000 0.625000
vt 0.875000 0.750000
vt 0.750000 0.750000
vt 0.484375 0.875000
vt 0.500000 0.875000
vt 0.500000 1.000000
vt 0.484375 1.000000
vt 0.484375 0.625000
vt 0.500000 0.625000
vt 0.500000 0.750000
vt 0.484375 0.750000
vt 0.484375 0.375000
vt 0.500000 0.375000
vt 0.500000 0.500000
vt 0.484375 0.500000
vt 0.484375 0.125000
vt 0.500000 0.125000
vt 0.500000 0.250000
vt 0.484375 0.250000
vt 0.546887 0.875000
vt 0.562516 0.875000
vt 0.562516 1.000000
vt 0.546887 1.000000
vt 0.546887 0.625000
vt 0.562516 0.625000
vt 0.562516 0.750000
vt 0.546887 0.750000
vt 0.546887 0.375000
vt 0.562516 0.375000
vt 0.562516 0.500000
vt 0.546887 0.500000
vt 0.546887 0.125000
vt 0.562516 0.125000
vt 0.562516 0.250000
vt 0.546887 0.250000
vt 0.421212 0.125000
vt 0.437500 0.125000
vt 0.437500 0.250000
vt 0.421212 0.250000
vt 0.421212 0.375000
vt 0.437500 0.375000
vt 0.437500 0.500000
vt 0.421212 0.500000
vt 0.421212 0.625000
vt 0.437500 0.625000
vt 0.437500 0.750000
vt 0.421212 0.750000
vt 0.421212 0.875000
vt 0.437500 0.875000
vt 0.437500 1.000000
vt 0.421212 1.000000
vt 0.389962 0.875000
vt 0.404923 0.875000
vt 0.404923 1.000000
vt 0.389962 1.000000
vt 0.389962 0.625000
vt 0.404923 0.625000
vt 0.404923 0.750000
vt 0.389962 0.750000
vt 0.389962 0.375000
vt 0.404923 0.375000
vt 0.404923 0.500000
vt 0.389962 0.500000
vt 0.389962 0.125000
vt 0.404923 0.125000
vt 0.404923 0.250000
vt 0.389962 0.250000
vt 0.453125 0.125000
vt 0.468750 0.125000
vt 0.468750 0.250000
vt 0.453125 0.250000
vt 0.453125 0.375000
vt 0.468750 0.375000
vt 0.468750 0.500000
vt 0.453125 0.500000
vt 0.453125 0.625000
vt 0.468750 0.625000
vt 0.468750 0.750000
vt 0.453125 0.750000
vt 0.453125 0.875000
vt 0.468750 0.875000
vt 0.468750 1.000000
vt 0.453125 1.000000
vt 0.515629 0.125000
vt 0.531258 0.125000
vt 0.531258 0.250000
vt 0.515629 0.250000
vt 0.515629 0.375000
vt 0.531258 0.375000
vt 0.531258 0.500000
vt 0.515629 0.500000
vt 0.515629 0.625000
vt 0.531258 0.625000
vt 0.531258 0.750000
vt 0.515629 0.750000
vt 0.515629 0.875000
vt 0.531258 0.875000
vt 0.531258 1.000000
vt 0.515629 1.000000
vt 0.578137 0.875000
vt 0.593758 0.875000
vt 0.593758 1.000000
vt 0.578137 1.000000
vt 0.578137 0.625000
vt 0.593758 0.625000
vt 0.593758 0.750000
vt 0.578137 0.750000
vt 0.578137 0.375000
vt 0.593758 0.375000
vt 0.593758 0.500000
vt 0.578137 0.500000
vt 0.578137 0.125000
vt 0.593758 0.125000
vt 0.593758 0.250000
vt 0.578137 0.250000
vt 0.578137 0.000000
vt 0.593758 0.000000
vt 0.515629 0.000000
vt 0.531258 0.000000
vt 0.453125 0.000000
vt 0.468750 0.000000
vt 0.389962 0.000000
vt 0.404923 0.000000
vt 0.421212 0.000000
vt 0.437500 0.000000
vt 0.546887 0.000000
vt 0.562516 0.000000
vt 0.484375 0.000000
vt 0.500000 0.000000
vt 0.750000 0.500000
vt 0.875000 0.500000
vt 0.250000 0.500000
vt 0.375000 0.500000
vt 0.609379 0.000000
vt 0.625000 0.000000
vt 0.125000 0.500000
vt 0.125000 0.625000
vt 0.125000 0.750000
vt 0.375000 0.875000
vt 0.375000 0.250000
vt 0.375000 0.375000
vt 0.375000 0.000000
vt 0.375000 0.125000
vt 0.375000 1.000000
vn -1.0000 0.0000 0.0000
vn 0.0000 0.0000 -1.0000
vn 1.0000 0.0000 0.0000
vn 0.0000 0.0000 1.0000
vn 0.0000 -1.0000 0.0000
vn 0.0000 1.0000 0.0000
usemtl None
s off
f 96/1/1 38/2/1 4/3/1 92/4/1
f 98/5/2 56/6/2 8/7/2 93/8/2
f 95/9/3 40/10/3 6/11/3 94/12/3
f 97/13/4 58/14/4 2/15/4 91/16/4
f 74/17/5 39/18/5 5/19/5 57/20/5
f 73/21/6 38/22/6 2/23/6 58/24/6
f 106/25/4 59/26/4 9/27/4 99/28/4
f 104/29/3 41/30/3 12/31/3 102/32/3
f 105/33/2 60/34/2 11/35/2 101/36/2
f 103/37/1 42/38/1 10/39/1 100/40/1
f 82/41/4 61/42/4 13/43/4 75/44/4
f 80/45/3 43/46/3 16/47/3 78/48/3
f 81/49/2 62/50/2 15/51/2 77/52/2
f 79/53/1 44/54/1 14/55/1 76/56/1
f 128/57/1 45/58/1 17/59/1 124/60/1
f 130/61/2 63/62/2 18/63/2 125/64/2
f 127/65/3 46/66/3 19/67/3 126/68/3
f 129/69/4 64/70/4 20/71/4 123/72/4
f 138/73/4 65/74/4 24/75/4 134/76/4
f 136/77/3 47/78/3 23/79/3 133/80/3
f 137/81/2 66/82/2 22/83/2 132/84/2
f 135/85/1 48/86/1 21/87/1 131/88/1
f 120/89/1 49/90/1 26/91/1 115/92/1
f 122/93/2 67/94/2 27/95/2 116/96/2
f 119/97/3 50/98/3 28/99/3 117/100/3
f 121/101/4 68/102/4 25/103/4 118/104/4
f 112/105/1 51/106/1 29/107/1 107/108/1
f 114/109/2 69/110/2 30/111/2 108/112/2
f 111/113/3 52/114/3 31/115/3 109/116/3
f 113/117/4 70/118/4 32/119/4 110/120/4
f 90/121/4 71/122/4 33/123/4 86/124/4
f 88/125/3 53/126/3 36/127/3 85/128/3
f 89/129/2 72/130/2 35/131/2 84/132/2
f 87/133/1 54/134/1 34/135/1 83/136/1
f 86/137/1 33/138/1 54/134/1 87/133/1
f 84/132/3 35/131/3 53/126/3 88/125/3
f 108/112/3 30/111/3 52/114/3 111/113/3
f 110/139/1 32/140/1 51/106/1 112/105/1
f 116/96/3 27/95/3 50/98/3 119/97/3
f 118/141/1 25/142/1 49/90/1 120/89/1
f 134/143/1 24/144/1 48/86/1 135/85/1
f 132/84/3 22/83/3 47/78/3 136/77/3
f 125/64/3 18/63/3 46/66/3 127/65/3
f 123/145/1 20/146/1 45/58/1 128/57/1
f 75/147/1 13/148/1 44/54/1 79/53/1
f 77/52/3 15/51/3 43/46/3 80/45/3
f 99/149/1 9/150/1 42/38/1 103/37/1
f 101/36/3 11/35/3 41/30/3 104/29/3
f 56/151/6 4/152/6 38/22/6 73/21/6
f 55/153/5 7/154/5 39/18/5 74/17/5
f 93/8/3 8/7/3 40/10/3 95/9/3
f 91/155/1 2/156/1 38/2/1 96/1/1
f 3/157/5 55/153/5 74/17/5 37/158/5
f 8/7/6 56/151/6 73/21/6 40/10/6
f 83/136/2 34/135/2 72/130/2 89/129/2
f 85/128/4 36/127/4 71/122/4 90/121/4
f 109/116/4 31/115/4 70/118/4 113/117/4
f 107/108/2 29/107/2 69/110/2 114/109/2
f 117/100/4 28/99/4 68/102/4 121/101/4
f 115/92/2 26/91/2 67/94/2 122/93/2
f 131/88/2 21/87/2 66/82/2 137/81/2
f 133/80/4 23/79/4 65/74/4 138/73/4
f 126/68/4 19/67/4 64/70/4 129/69/4
f 124/60/2 17/59/2 63/62/2 130/61/2
f 76/56/2 14/55/2 62/50/2 81/49/2
f 78/48/4 16/47/4 61/42/4 82/41/4
f 100/40/2 10/39/2 60/34/2 105/33/2
f 102/32/4 12/31/4 59/26/4 106/25/4
f 40/10/6 73/21/6 58/24/6 6/11/6
f 37/158/5 74/17/5 57/20/5 1/159/5
f 94/12/4 6/11/4 58/14/4 97/13/4
f 92/4/2 4/3/2 56/6/2 98/5/2
f 31/115/4 78/48/4 82/41/4 70/118/4
f 29/107/2 76/56/2 81/49/2 69/110/2
f 30/111/3 77/52/3 80/45/3 52/114/3
f 32/140/1 75/147/1 79/53/1 51/106/1
f 51/106/1 79/53/1 76/56/1 29/107/1
f 69/110/2 81/49/2 77/52/2 30/111/2
f 52/114/3 80/45/3 78/48/3 31/115/3
f 70/118/4 82/41/4 75/44/4 32/119/4
f 16/47/4 85/128/4 90/121/4 61/42/4
f 14/55/2 83/136/2 89/129/2 62/50/2
f 15/51/3 84/132/3 88/125/3 43/46/3
f 13/148/1 86/137/1 87/133/1 44/54/1
f 44/54/1 87/133/1 83/136/1 14/55/1
f 62/50/2 89/129/2 84/132/2 15/51/2
f 43/46/3 88/125/3 85/128/3 16/47/3
f 61/42/4 90/121/4 86/124/4 13/43/4
f 34/135/2 92/4/2 98/5/2 72/130/2
f 36/127/4 94/12/4 97/13/4 71/122/4
f 33/138/1 91/155/1 96/1/1 54/134/1
f 35/131/3 93/8/3 95/9/3 53/126/3
f 71/122/4 97/13/4 91/16/4 33/123/4
f 53/126/3 95/9/3 94/12/3 36/127/3
f 72/130/2 98/5/2 93/8/2 35/131/2
f 54/134/1 96/1/1 92/4/1 34/135/1
f 28/99/4 102/32/4 106/25/4 68/102/4
f 26/91/2 100/40/2 105/33/2 67/94/2
f 27/95/3 101/36/3 104/29/3 50/98/3
f 25/142/1 99/149/1 103/37/1 49/90/1
f 49/90/1 103/37/1 100/40/1 26/91/1
f 67/94/2 105/33/2 101/36/2 27/95/2
f 50/98/3 104/29/3 102/32/3 28/99/3
f 68/102/4 106/25/4 99/28/4 25/103/4
f 10/39/2 107/108/2 114/109/2 60/34/2
f 12/31/4 109/116/4 113/117/4 59/26/4
f 9/150/1 110/139/1 112/105/1 42/38/1
f 11/35/3 108/112/3 111/113/3 41/30/3
f 59/26/4 113/117/4 110/120/4 9/27/4
f 41/30/3 111/113/3 109/116/3 12/31/3
f 60/34/2 114/109/2 108/112/2 11/35/2
f 42/38/1 112/105/1 107/108/1 10/39/1
f 17/59/2 115/92/2 122/93/2 63/62/2
f 19/67/4 117/100/4 121/101/4 64/70/4
f 20/146/1 118/141/1 120/89/1 45/58/1
f 18/63/3 116/96/3 119/97/3 46/66/3
f 64/70/4 121/101/4 118/104/4 20/71/4
f 46/66/3 119/97/3 117/100/3 19/67/3
f 63/62/2 122/93/2 116/96/2 18/63/2
f 45/58/1 120/89/1 115/92/1 17/59/1
f 21/87/2 124/60/2 130/61/2 66/82/2
f 23/79/4 126/68/4 129/69/4 65/74/4
f 24/144/1 123/145/1 128/57/1 48/86/1
f 22/83/3 125/64/3 127/65/3 47/78/3
f 65/74/4 129/69/4 123/72/4 24/75/4
f 47/78/3 127/65/3 126/68/3 23/79/3
f 66/82/2 130/61/2 125/64/2 22/83/2
f 48/86/1 128/57/1 124/60/1 21/87/1
f 5/19/4 133/80/4 138/73/4 57/160/4
f 3/161/2 131/88/2 137/81/2 55/162/2
f 7/154/3 132/84/3 136/77/3 39/18/3
f 1/163/1 134/143/1 135/85/1 37/164/1
f 37/164/1 135/85/1 131/88/1 3/161/1
f 55/162/2 137/81/2 132/84/2 7/154/2
f 39/18/3 136/77/3 133/80/3 5/19/3
f 57/160/4 138/73/4 134/76/4 1/165/4
